<?xml version="1.0" encoding="UTF-8"?>
<svg width="600px" height="300px" viewBox="0 0 600 300" version="1.1" xmlns="http://www.w3.org/2000/svg" xmlns:xlink="http://www.w3.org/1999/xlink">
    <title>leme logo free@3x</title>
    <g id="leme-logo-free" stroke="none" stroke-width="1" fill="none" fill-rule="evenodd">
        <g id="leme" transform="translate(77.260000, 15.770696)" fill="#FFFFFF">
            <g id="Tekst-outlined" transform="translate(21.414000, 34.229304)">
                <path d="M6.02,0 L6.02,168.103448 L1.72,168.103448 L1.72,1.29310345 L6.02,0 Z M85.355,120.258621 C74.39,122.844828 56.76,125.862069 43.86,127.37069 C45.58,151.077586 61.49,167.456897 86,167.456897 C99.33,167.456897 112.015,161.637931 119.755,151.724138 L120.4,151.724138 L120.83,157.543103 C112.66,165.948276 100.19,171.767241 86,171.767241 C54.18,171.767241 39.345,148.706897 39.345,122.844828 C39.345,92.2413793 61.06,61.8534483 93.31,61.8534483 C112.445,61.8534483 122.765,73.4913793 122.765,88.362069 C122.765,102.37069 113.52,113.793103 85.355,120.258621 Z M93.31,66.1637931 C63.855,66.1637931 43.86,94.8275862 43.86,122.844828 C54.395,121.767241 74.175,118.534483 84.28,116.163793 C110.51,109.913793 118.25,100.215517 118.25,88.362069 C118.25,76.5086207 110.295,66.1637931 93.31,66.1637931 Z M283.155,168.103448 L283.155,101.077586 C283.155,80.8189655 275.63,67.887931 256.495,67.887931 C245.315,67.887931 237.145,73.2758621 230.91,82.112069 C226.61,87.9310345 224.46,92.6724138 224.245,99.5689655 L224.245,168.103448 L219.945,168.103448 L219.945,98.0603448 C219.945,78.8793103 209.625,67.887931 193.07,67.887931 C183.395,67.887931 175.655,72.1982759 169.635,79.0948276 C164.26,85.1293103 161.035,92.4568966 161.035,101.508621 L161.035,168.103448 L156.735,168.103448 L156.735,65.7327586 L161.035,65.7327586 L161.035,85.5603448 C162.325,82.3275862 164.26,79.0948276 166.625,76.2931034 C172.215,69.612069 181.03,63.5775862 193.07,63.5775862 C208.765,63.5775862 219.945,72.6293103 223.17,88.1465517 C224.245,85.1293103 225.965,82.3275862 228.115,79.3103448 C235.21,69.3965517 244.67,63.5775862 256.495,63.5775862 C278.21,63.5775862 287.455,78.4482759 287.455,101.077586 L287.455,168.103448 L283.155,168.103448 Z M365.07,120.258621 C354.105,122.844828 336.475,125.862069 323.575,127.37069 C325.295,151.077586 341.205,167.456897 365.715,167.456897 C379.045,167.456897 391.73,161.637931 399.47,151.724138 L400.115,151.724138 L400.545,157.543103 C392.375,165.948276 379.905,171.767241 365.715,171.767241 C333.895,171.767241 319.06,148.706897 319.06,122.844828 C319.06,92.2413793 340.775,61.8534483 373.025,61.8534483 C392.16,61.8534483 402.48,73.4913793 402.48,88.362069 C402.48,102.37069 393.235,113.793103 365.07,120.258621 Z M373.025,66.1637931 C343.57,66.1637931 323.575,94.8275862 323.575,122.844828 C334.11,121.767241 353.89,118.534483 363.995,116.163793 C390.225,109.913793 397.965,100.215517 397.965,88.362069 C397.965,76.5086207 390.01,66.1637931 373.025,66.1637931 Z" id="leme"></path>
            </g>
        </g>
    </g>
</svg>